<svg id="visual" viewBox="0 0 900 600" width="900" height="600" xmlns="http://www.w3.org/2000/svg" xmlns:xlink="http://www.w3.org/1999/xlink" version="1.1"><rect x="0" y="0" width="900" height="600" fill="#ffffff"></rect><path d="M0 53L13.7 74.7C27.3 96.3 54.7 139.7 82 168.7C109.3 197.7 136.7 212.3 163.8 201.2C191 190 218 153 245.2 144.3C272.3 135.7 299.7 155.3 327 159.3C354.3 163.3 381.7 151.7 409 127.7C436.3 103.7 463.7 67.3 491 61.5C518.3 55.7 545.7 80.3 573 77.2C600.3 74 627.7 43 654.8 52.3C682 61.7 709 111.3 736.2 144.7C763.3 178 790.7 195 818 192C845.3 189 872.7 166 886.3 154.5L900 143L900 0L886.3 0C872.7 0 845.3 0 818 0C790.7 0 763.3 0 736.2 0C709 0 682 0 654.8 0C627.7 0 600.3 0 573 0C545.7 0 518.3 0 491 0C463.7 0 436.3 0 409 0C381.7 0 354.3 0 327 0C299.7 0 272.3 0 245.2 0C218 0 191 0 163.8 0C136.7 0 109.3 0 82 0C54.7 0 27.3 0 13.7 0L0 0Z" fill="#000000" stroke-linecap="round" stroke-linejoin="miter"></path></svg>