<svg id="visual" viewBox="0 0 900 600" width="900" height="600" xmlns="http://www.w3.org/2000/svg" xmlns:xlink="http://www.w3.org/1999/xlink" version="1.1"><rect x="0" y="0" width="900" height="600" fill="#a8a8a8"></rect><path d="M0 273L15 267.3C30 261.7 60 250.3 90 205.7C120 161 150 83 180 76.3C210 69.7 240 134.3 270 145.8C300 157.3 330 115.7 360 124.7C390 133.7 420 193.3 450 193.3C480 193.3 510 133.7 540 91.5C570 49.3 600 24.7 630 55.8C660 87 690 174 720 175.2C750 176.3 780 91.7 810 80.7C840 69.7 870 132.3 885 163.7L900 195L900 0L885 0C870 0 840 0 810 0C780 0 750 0 720 0C690 0 660 0 630 0C600 0 570 0 540 0C510 0 480 0 450 0C420 0 390 0 360 0C330 0 300 0 270 0C240 0 210 0 180 0C150 0 120 0 90 0C60 0 30 0 15 0L0 0Z" fill="#000000" stroke-linecap="round" stroke-linejoin="miter"></path></svg>