<svg id="visual" viewBox="0 0 900 600" width="900" height="600" xmlns="http://www.w3.org/2000/svg" xmlns:xlink="http://www.w3.org/1999/xlink" version="1.1"><rect x="0" y="0" width="900" height="600" fill="#a8a8a8"></rect><path d="M0 233L12.5 272.2C25 311.3 50 389.7 75 377C100 364.3 125 260.7 150 247.3C175 234 200 311 225 349.2C250 387.3 275 386.7 300 367.7C325 348.7 350 311.3 375 334.8C400 358.3 425 442.7 450 465C475 487.3 500 447.7 525 413.5C550 379.3 575 350.7 600 353.7C625 356.7 650 391.3 675 398.3C700 405.3 725 384.7 750 386.5C775 388.3 800 412.7 825 416.5C850 420.3 875 403.7 887.5 395.3L900 387L900 601L887.5 601C875 601 850 601 825 601C800 601 775 601 750 601C725 601 700 601 675 601C650 601 625 601 600 601C575 601 550 601 525 601C500 601 475 601 450 601C425 601 400 601 375 601C350 601 325 601 300 601C275 601 250 601 225 601C200 601 175 601 150 601C125 601 100 601 75 601C50 601 25 601 12.5 601L0 601Z" fill="#000000" stroke-linecap="round" stroke-linejoin="miter"></path></svg>